name C:\Users\u0101727\Documents\MyRepositories\upper-imu-dc\Results\main_tracking\Case_30\kinematics.mot
datacolumns 43
datarows 7
range 1.50000000 1.56000000
endheader 
time	clav_prot	clav_elev	scapula_abduction	scapula_elevation	scapula_upward_rot	scapula_winging	plane_elv	shoulder_elv	axial_rot	TrapeziusScapula_M/activation	TrapeziusScapula_S/activation	TrapeziusScapula_I/activation	TrapeziusClavicle_S/activation	SerratusAnterior_I/activation	SerratusAnterior_M/activation	SerratusAnterior_S/activation	Rhomboideus_S/activation	Rhomboideus_I/activation	LevatorScapulae/activation	Coracobrachialis/activation	DeltoideusClavicle_A/activation	DeltoideusScapula_P/activation	DeltoideusScapula_M/activation	LatissimusDorsi_S/activation	LatissimusDorsi_M/activation	LatissimusDorsi_I/activation	PectoralisMajorClavicle_S/activation	PectoralisMajorThorax_I/activation	PectoralisMajorThorax_M/activation	TeresMajor/activation	Infraspinatus_I/activation	Infraspinatus_S/activation	PectoralisMinor/activation	TeresMinor/activation	Subscapularis_S/activation	Subscapularis_M/activation	Subscapularis_I/activation	Supraspinatus_P/activation	Supraspinatus_A/activation	TRIlong/activation	BIC_long/activation	BIC_brevis/activation	
          1.50000000	        -23.00800003	          2.20270808	         -0.66933024	          1.86259637	         24.59045821	          0.10180238	         66.55749150	         55.06017393	        -23.24778884	          0.08522335	          0.02488171	          0.01646165	          0.01001389	          0.01001169	          0.01001255	          0.01001606	          0.02506289	          0.01458015	          0.01001612	          0.01001493	          0.01001101	          0.01001591	          0.01001157	          0.01001635	          0.01001739	          0.01001693	          0.01001377	          0.01001970	          0.01001821	          0.01001701	          0.01001472	          0.01000000	          0.01001996	          0.01001367	          0.01000000	          0.01001503	          0.01001798	          0.01001267	          0.01001409	          0.01002049	          0.01001423	          0.01001674	
          1.51000000	        -21.97945640	          7.12196875	         -7.88654592	          1.74619471	         24.48618752	          0.14418142	         67.61894849	         55.21824858	        -23.08356762	          0.08479984	          0.02707027	          0.01609978	          0.01001251	          0.01001522	          0.01001455	          0.01001350	          0.02539092	          0.01404307	          0.01001191	          0.01001234	          0.01001572	          0.01001236	          0.01001459	          0.01001203	          0.01001186	          0.01001201	          0.01001409	          0.01001251	          0.01001283	          0.01001210	          0.01001234	          0.01000000	          0.01001283	          0.01001292	          0.01000000	          0.01001229	          0.01001215	          0.01001439	          0.01001334	          0.01001130	          0.01001328	          0.01001262	
          1.52000000	        -22.17762936	          7.01391155	         -8.24903608	          1.67136501	         24.41348807	          0.17107060	         68.46812793	         55.51129996	        -22.94927144	          0.08612140	          0.02809032	          0.01514958	          0.01001254	          0.01001330	          0.01001261	          0.01001200	          0.02819974	          0.01493089	          0.01001171	          0.01001265	          0.01001228	          0.01001188	          0.01001219	          0.01001250	          0.01001231	          0.01001227	          0.01001198	          0.01001131	          0.01001143	          0.01001198	          0.01001263	          0.01000000	          0.01001136	          0.01001207	          0.01000000	          0.01001257	          0.01001194	          0.01001211	          0.01001224	          0.01001183	          0.01001202	          0.01001208	
          1.53000000	        -22.18369010	          6.93613991	         -8.26308161	          1.62521238	         24.36257674	          0.18948476	         69.10131452	         55.76356181	        -22.80383630	          0.08536615	          0.02877315	          0.01412965	          0.01001288	          0.01001082	          0.01001171	          0.01001163	          0.02777886	          0.01461237	          0.01001369	          0.01001267	          0.01001208	          0.01001279	          0.01001255	          0.01001259	          0.01001257	          0.01001258	          0.01001232	          0.01001245	          0.01001245	          0.01001278	          0.01001264	          0.01000000	          0.01001196	          0.01001261	          0.01000000	          0.01001266	          0.01001273	          0.01001260	          0.01001268	          0.01001282	          0.01001271	          0.01001256	
          1.54000000	        -22.18380323	          6.87810007	         -8.26736847	          1.59157000	         24.32224883	          0.20402107	         69.54538798	         55.94486570	        -22.65621697	          0.08627861	          0.02915759	          0.01418283	          0.01001260	          0.01001319	          0.01001273	          0.01001309	          0.02800549	          0.01461695	          0.01001235	          0.01001263	          0.01001273	          0.01001274	          0.01001276	          0.01001269	          0.01001269	          0.01001268	          0.01001266	          0.01001289	          0.01001278	          0.01001267	          0.01001262	          0.01000000	          0.01001311	          0.01001275	          0.01000000	          0.01001263	          0.01001264	          0.01001269	          0.01001264	          0.01001268	          0.01001272	          0.01001258	
          1.55000000	        -22.18425809	          6.83345515	         -8.27052813	          1.56540657	         24.29236903	          0.21491084	         69.84833760	         56.06690638	        -22.54203181	          0.08688048	          0.02958226	          0.01402689	          0.01001266	          0.01001275	          0.01001277	          0.01001273	          0.02820535	          0.01457817	          0.01001270	          0.01001263	          0.01001273	          0.01001269	          0.01001271	          0.01001266	          0.01001264	          0.01001263	          0.01001265	          0.01001267	          0.01001267	          0.01001264	          0.01001262	          0.01000000	          0.01001268	          0.01001270	          0.01000000	          0.01001263	          0.01001261	          0.01001264	          0.01001262	          0.01001264	          0.01001268	          0.01001256	
          1.56000000	        -22.18334812	          6.80343194	         -8.26797141	          1.54708011	         24.27574857	          0.22120243	         70.05238124	         56.14488805	        -22.49279242	          0.08798255	          0.03007107	          0.01400477	          0.01001266	          0.01001264	          0.01001269	          0.01001263	          0.02841598	          0.01452505	          0.01001263	          0.01001262	          0.01001267	          0.01001267	          0.01001267	          0.01001266	          0.01001264	          0.01001263	          0.01001263	          0.01001263	          0.01001263	          0.01001264	          0.01001261	          0.01000000	          0.01001260	          0.01001269	          0.01000000	          0.01001263	          0.01001261	          0.01001261	          0.01001260	          0.01001264	          0.01001265	          0.01001258	
